<svg width="126" height="30" viewBox="0 0 126 30" fill="none" xmlns="http://www.w3.org/2000/svg">
<mask id="mask0_4001_663" style="mask-type:luminance" maskUnits="userSpaceOnUse" x="1" y="0" width="123" height="29">
<path d="M123.313 0H1.68652V29H123.313V0Z" fill="white"/>
</mask>
<g mask="url(#mask0_4001_663)">
<path d="M30.2071 4.2557L30.0585 4.32129C29.1591 3.49361 28.1083 2.84141 26.9619 2.39927C24.4581 1.46042 21.6948 1.43953 19.1767 2.34042C18.0547 2.75906 17.0383 3.41254 16.1979 4.2557C15.3383 5.13492 14.6771 6.18299 14.2576 7.33126C13.7753 8.66128 13.5404 10.0659 13.5641 11.478C13.5509 13.0921 13.7729 14.6998 14.2234 16.2519C14.6208 17.644 15.2884 18.9471 16.1894 20.0892C17.0637 21.1734 18.1792 22.0456 19.45 22.6384C20.7549 23.2572 22.2768 23.5666 24.0156 23.5666C24.6474 23.5658 25.2772 23.4982 25.8944 23.3648C26.5171 23.2331 27.1231 23.0341 27.7015 22.7712C28.2787 22.5113 28.8266 22.1923 29.3361 21.8195C29.8484 21.4457 30.3165 21.0164 30.7315 20.5398L30.9143 20.6575L29.5957 24.0761C28.7127 24.4146 27.7971 24.6637 26.8628 24.8194C25.8681 24.9922 24.8599 25.0788 23.8499 25.0783C21.9485 25.1006 20.0575 24.7979 18.2612 24.1838C16.651 23.6348 15.1688 22.7737 13.9023 21.6513C12.6785 20.5515 11.7082 19.2064 11.0568 17.7064C10.3637 16.0909 10.0182 14.3514 10.0422 12.5979C10.0411 11.5432 10.1765 10.4928 10.4452 9.47189C10.7132 8.45165 11.1102 7.46868 11.6272 6.54596C12.1469 5.6158 12.7909 4.75844 13.5419 3.99674C14.3127 3.21182 15.1877 2.53305 16.1432 1.97888C17.1513 1.3964 18.2342 0.949605 19.3629 0.650455C20.6039 0.324138 21.8839 0.164077 23.1684 0.174582C25.1826 0.155762 27.1842 0.489406 29.0798 1.15997L30.2071 4.2557Z" fill="currentColor"/>
<path d="M44.7766 0.176031C46.5184 0.15811 48.2475 0.466854 49.8715 1.08575C51.3787 1.66223 52.7516 2.53278 53.9077 3.64507C55.0599 4.76895 55.965 6.11399 56.5671 7.59671C57.2207 9.21915 57.5453 10.9517 57.5236 12.6969C57.5241 13.749 57.4024 14.7978 57.1614 15.8228C56.9255 16.831 56.5679 17.8077 56.0957 18.7319C55.6296 19.6433 55.0504 20.494 54.3704 21.2644C53.69 22.0371 52.904 22.7129 52.034 23.2721C51.1341 23.8449 50.1568 24.2893 49.1305 24.5921C48.022 24.9168 46.8707 25.0771 45.7141 25.068C43.9747 25.0857 42.2471 24.7823 40.621 24.1734C39.1089 23.6138 37.7321 22.7493 36.5791 21.6353C35.4261 20.5213 34.5223 19.1824 33.9256 17.7045C33.2698 16.0798 32.9448 14.3441 32.969 12.596C32.9677 11.5437 33.0892 10.4948 33.3311 9.46998C33.569 8.45701 33.9267 7.47499 34.397 6.54405C34.8591 5.62726 35.4358 4.7709 36.1135 3.99482C37.495 2.40692 39.3129 1.24553 41.3486 0.65022C42.4611 0.325857 43.6164 0.166055 44.7766 0.176031ZM45.7176 23.5664C46.8711 23.5791 48.0142 23.3498 49.0708 22.8938C50.0802 22.4496 50.9744 21.7868 51.6873 20.9549C52.4564 20.04 53.0364 18.9862 53.3953 17.8525C53.8207 16.5079 54.0263 15.1055 54.0051 13.6974C54.0185 12.0885 53.822 10.4845 53.4191 8.92512C53.0758 7.56178 52.4854 6.2705 51.6769 5.11305C50.9316 4.06065 49.9443 3.19642 48.7955 2.59073C47.6468 1.98313 46.3063 1.67935 44.7749 1.67935C43.6231 1.66542 42.4813 1.89058 41.4238 2.34018C40.416 2.77622 39.5215 3.43098 38.8071 4.25547C38.0373 5.15971 37.4568 6.20497 37.0991 7.33103C36.6735 8.67265 36.4677 10.0724 36.4893 11.4777C36.477 13.0866 36.6709 14.6906 37.0666 16.2516C37.4045 17.6233 37.9918 18.9233 38.8002 20.089C39.5481 21.1493 40.5379 22.0223 41.6902 22.6381C42.8448 23.2603 44.1874 23.5714 45.7176 23.5714V23.5664Z" fill="currentColor"/>
<path d="M1.68652 25.0016C1.7702 24.7048 1.83523 24.4033 1.88124 24.0986C1.93931 23.7399 1.99226 23.2914 2.04008 22.7534C2.08791 22.2153 2.12321 21.5819 2.14598 20.8532C2.1699 20.1178 2.18185 19.2585 2.18185 18.2754V6.9737C2.18185 5.99055 2.1699 5.13129 2.14598 4.39586C2.12207 3.66048 2.08677 3.02373 2.04008 2.48564C1.99226 1.94754 1.93931 1.49913 1.88124 1.1404C1.83523 0.835748 1.7702 0.534183 1.68652 0.237406V0.168457H5.90193V0.237406C5.83248 0.47955 5.76472 0.780544 5.69868 1.1404C5.63264 1.50025 5.57969 1.94866 5.53983 2.48564C5.49884 3.02373 5.46354 3.66048 5.43393 4.39586C5.40433 5.13129 5.3901 5.99055 5.39123 6.9737V18.2754C5.39123 19.2597 5.40547 20.1189 5.43393 20.8532C5.4624 21.5875 5.4977 22.2209 5.53983 22.7534C5.58083 23.2859 5.63377 23.7343 5.69868 24.0986C5.76358 24.4629 5.83133 24.7639 5.90193 25.0016V25.0705H1.68652V25.0016Z" fill="currentColor"/>
<path d="M89.3374 24.9793C89.4192 24.6821 89.4841 24.3807 89.5322 24.0763C89.5902 23.7176 89.6426 23.2692 89.6893 22.7311C89.736 22.193 89.7711 21.5596 89.7949 20.8309C89.8192 20.0967 89.8308 19.2374 89.8308 18.2531V6.95144C89.8308 5.96718 89.8192 5.1073 89.7949 4.37192C89.7711 3.63653 89.736 3.00035 89.6893 2.46337C89.6439 1.92528 89.5915 1.47686 89.5322 1.11813C89.4846 0.81378 89.4192 0.51231 89.3374 0.215143V0.144531H93.5545V0.215143C93.4714 0.512492 93.4043 0.813897 93.3528 1.11813C93.2879 1.47686 93.2351 1.92528 93.194 2.46337C93.1533 3.00147 93.1178 3.63765 93.0884 4.37192C93.0598 5.10843 93.0451 5.9683 93.0438 6.95144V18.2531C93.0438 19.2363 93.0585 20.0955 93.0884 20.8309C93.1178 21.5663 93.1533 22.1997 93.194 22.7311C93.2351 23.2647 93.2879 23.7131 93.3528 24.0763C93.4043 24.3805 93.4714 24.6819 93.5545 24.9793V25.0483H89.3374V24.9793Z" fill="currentColor"/>
<path d="M62.7931 0.176166L80.8982 19.139V6.95786C80.8982 5.97696 80.8865 5.12047 80.8622 4.38846C80.8402 3.65698 80.8042 3.02134 80.7584 2.48493C80.712 1.94851 80.654 1.5029 80.5874 1.13969C80.5207 0.776476 80.4558 0.482209 80.3857 0.240066V0.171116H83.5134V0.240066C83.4311 0.535988 83.3666 0.836372 83.3203 1.13969C83.2623 1.49786 83.2091 1.94347 83.1615 2.48493C83.1134 3.02639 83.0792 3.66202 83.0572 4.38846C83.0351 5.11489 83.0212 5.97748 83.0212 6.95786V25.3338H82.4066L64.3015 6.38781V18.2225C64.3015 19.2023 64.3132 20.0588 64.337 20.7919C64.3612 21.5251 64.3954 22.1557 64.443 22.6871C64.4911 23.2184 64.5422 23.6607 64.6002 24.0189C64.6482 24.3492 64.7131 24.677 64.7949 25.0009V25.0698H61.6694V25.0009C61.7391 24.7587 61.8058 24.377 61.8707 24.0189C61.9356 23.6607 61.9919 23.2168 62.0417 22.6871C62.091 22.1574 62.1235 21.5251 62.1473 20.7919C62.1715 20.0588 62.1815 19.2029 62.1815 18.2225V6.95617C62.1815 5.97528 62.1702 5.11882 62.1473 4.38677C62.1235 3.6553 62.0876 3.01966 62.0417 2.48325C61.9954 1.94683 61.9391 1.50122 61.8707 1.13801C61.8023 0.774793 61.7391 0.480525 61.6694 0.238383V0.169434L62.7931 0.176166Z" fill="currentColor"/>
<path d="M122.343 7.52468C121.739 6.02092 120.824 4.6574 119.655 3.52086C118.486 2.3843 117.09 1.49959 115.556 0.922935C113.91 0.295237 112.157 -0.0180878 110.392 -0.000256097C109.217 -0.00971395 108.046 0.15293 106.918 0.482347C104.855 1.08653 103.012 2.26354 101.611 3.87236C100.926 4.65961 100.342 5.52779 99.8743 6.45691C99.3973 7.40045 99.035 8.39606 98.7948 9.42314C98.5489 10.4623 98.4251 11.5259 98.426 12.5929C98.4022 14.3653 98.7325 16.125 99.3977 17.7721C100.002 19.2706 100.919 20.6281 102.087 21.7575C103.256 22.8869 104.652 23.7632 106.185 24.3301C107.529 24.836 108.944 25.1316 110.38 25.2061C110.695 25.2258 111.002 25.3083 111.282 25.4483C111.74 25.6725 112.187 25.9195 112.62 26.1882C114.37 27.3653 116.609 28.3607 118.642 28.9964L119.254 28.7257C119.132 28.6517 119.032 28.5878 118.929 28.5272C117.704 27.8339 116.575 26.9859 115.573 26.0049C115.198 25.6602 114.898 25.2444 114.69 24.7824C114.731 24.7706 114.773 24.7605 114.814 24.7471C115.854 24.4381 116.843 23.9852 117.752 23.4019C118.635 22.8359 119.432 22.151 120.121 21.3672C120.81 20.5859 121.397 19.7234 121.87 18.7995C122.348 17.8623 122.711 16.8721 122.95 15.85C123.196 14.8109 123.32 13.7473 123.319 12.6803C123.338 10.9156 123.006 9.1643 122.343 7.52468ZM119.131 17.9251C118.766 19.0745 118.178 20.1427 117.397 21.0696C116.674 21.9132 115.768 22.5852 114.744 23.0353C113.673 23.4948 112.514 23.724 111.345 23.7079C109.794 23.7079 108.433 23.3946 107.261 22.7679C106.093 22.1436 105.09 21.2584 104.332 20.1834C103.511 19.0022 102.916 17.6836 102.575 16.2923C102.173 14.7098 101.977 13.0838 101.989 11.4528C101.967 10.0281 102.176 8.60906 102.607 7.24892C102.97 6.10671 103.559 5.04652 104.341 4.12964C105.066 3.29487 105.972 2.63161 106.994 2.18912C108.066 1.73276 109.224 1.50359 110.392 1.5165C111.943 1.5165 113.302 1.82422 114.468 2.43967C115.632 3.05472 116.633 3.93159 117.389 4.99899C118.208 6.17323 118.807 7.48334 119.155 8.86655C119.563 10.448 119.763 12.0745 119.749 13.706C119.771 15.1357 119.562 16.5598 119.131 17.9251Z" fill="currentColor"/>
</g>
</svg>
